M48
INCH
T01C0.0200
T02C0.0400
T03C0.0300
T04C0.0500
%
T01
X+015778Y+011065
X+007500Y+012250
X+003750Y+027500
X+021511Y+011111
X+013888Y+024012
X+022007Y+023992
X+003750Y+028500
X+021750Y+012000
X+017500Y+012000
X+015750Y+012000
T02
X+004000Y+016000
X+003000Y+016000
X+004000Y+017000
X+003000Y+017000
X+004000Y+018000
X+003000Y+018000
X+004000Y+019000
X+003000Y+019000
X+004000Y+020000
X+003000Y+020000
X+004000Y+021000
X+003000Y+021000
X+004000Y+022000
X+003000Y+022000
X+004000Y+023000
X+003000Y+023000
X+004000Y+024000
X+003000Y+024000
X+004000Y+025000
X+003000Y+025000
X+017753Y+022750
X+017753Y+021750
X+017753Y+020750
X+017753Y+019750
X+017753Y+018750
X+017753Y+017750
X+017753Y+016750
X+017753Y+015750
X+020746Y+015750
X+020746Y+016750
X+020746Y+017750
X+020746Y+018750
X+020746Y+019750
X+020746Y+020750
X+020746Y+021750
X+020746Y+022750
X+025750Y+027287
X+025750Y+026287
X+025750Y+025287
X+025750Y+024287
X+025750Y+029000
X+024750Y+029000
X+023750Y+029000
X+022750Y+029000
X+014750Y+010000
X+021750Y+029000
X+020750Y+029000
X+015750Y+010000
X+019750Y+029000
X+018750Y+029000
X+017250Y+029000
X+016250Y+029000
X+015250Y+029000
X+014250Y+029000
X+013250Y+029000
X+012250Y+029000
X+011750Y+010000
X+020750Y+010000
X+021750Y+010000
X+022750Y+010000
X+023750Y+010000
X+024750Y+010000
X+025750Y+010000
X+010250Y+029000
X+016750Y+010000
X+017750Y+010000
X+011250Y+029000
X+012750Y+010000
X+013750Y+010000
X+008250Y+029000
X+009250Y+029000
X+018750Y+010000
T03
X+002500Y+011500
X+006500Y+011500
X+007250Y+014000
X+011250Y+014000
X+006750Y+018250
X+010750Y+018250
X+009250Y+021750
X+013250Y+021750
X+002500Y+010500
X+006500Y+010500
X+012000Y+013000
X+008000Y+013000
X+006500Y+021750
X+006500Y+025750
X+009250Y+020000
X+013250Y+020000
X+005250Y+025750
X+005250Y+021750
X+010750Y+017250
X+006750Y+017250
X+014500Y+018250
X+014500Y+016281
X+008250Y+024750
X+008250Y+022781
X+013750Y+013750
X+013750Y+011781
X+011250Y+015718
X+013218Y+015718
X+008500Y+010750
X+010468Y+010750
T04
X+024750Y+012750
X+024750Y+014718
M30
